<?xml version="1.0" encoding="utf-8"?>
<!-- Generator: Adobe Illustrator 16.0.0, SVG Export Plug-In . SVG Version: 6.00 Build 0)  -->
<!DOCTYPE svg PUBLIC "-//W3C//DTD SVG 1.1//EN" "http://www.w3.org/Graphics/SVG/1.1/DTD/svg11.dtd">
<svg version="1.1" id="Calque_1" xmlns="http://www.w3.org/2000/svg" xmlns:xlink="http://www.w3.org/1999/xlink" x="0px" y="0px"
	 width="261.646px" height="240.441px" viewBox="0 0 261.646 240.441" enable-background="new 0 0 261.646 240.441"
	 xml:space="preserve">
<path fill="#00A651" d="M259.639,32.418c-0.035-0.05-0.103-0.151-0.196-0.267c-0.899-1.151-4.845-5.114-16.552-5.114
	c-15.896,0-38.926,7.093-68.443,21.08L48.937,0.125c-0.523-0.202-1.111-0.159-1.594,0.127l-32.03,18.569
	c-0.569,0.328-0.922,0.939-0.922,1.598c-0.003,0.661,0.343,1.272,0.912,1.606l95.437,56.274l-45.228,22.186L32.945,81.939
	c-0.551-0.315-1.222-0.325-1.781-0.031L0.996,97.689c-0.556,0.292-0.928,0.846-0.987,1.468c-0.061,0.626,0.198,1.24,0.69,1.631
	l47.129,37.519l0.009,0.37l1.365,61.42c0.013,0.63,0.344,1.21,0.875,1.54c0.535,0.329,1.199,0.366,1.768,0.104l28.778-13.461
	c0.538-0.253,0.925-0.752,1.036-1.333l7.26-38.106l43.53-22.615l-10.365,112.192c-0.062,0.678,0.255,1.341,0.826,1.719
	c0.311,0.204,0.667,0.305,1.024,0.305c0.304,0,0.609-0.078,0.889-0.228l30.635-16.712c0.413-0.225,0.728-0.597,0.873-1.046
	l41.548-126.032c6.717-3.804,58.763-33.862,63.416-54.603C262.096,38.241,261.524,35.057,259.639,32.418z"/>
<g>
</g>
<g>
</g>
<g>
</g>
<g>
</g>
<g>
</g>
<g>
</g>
</svg>
