<?xml version="1.0" encoding="utf-8"?>
<!-- Generator: Adobe Illustrator 16.0.0, SVG Export Plug-In . SVG Version: 6.00 Build 0)  -->
<!DOCTYPE svg PUBLIC "-//W3C//DTD SVG 1.1//EN" "http://www.w3.org/Graphics/SVG/1.1/DTD/svg11.dtd">
<svg version="1.1" id="Calque_1" xmlns="http://www.w3.org/2000/svg" xmlns:xlink="http://www.w3.org/1999/xlink" x="0px" y="0px"
	 width="997.361px" height="826.002px" viewBox="0 0 997.361 826.002" enable-background="new 0 0 997.361 826.002"
	 xml:space="preserve">
<g>
	<path d="M296.918,543.291l2.139-8.734c13.559-0.95,28.187-3.329,43.884-7.136c-4.153,12.255-7.177,22.131-9.074,29.623
		l-9.606,39.798c21.012,0,36.829-5.261,47.452-15.789c10.623-10.525,15.937-23.045,15.937-37.556
		c0-10.107-3.833-18.255-11.498-24.44c-7.665-6.184-19.104-9.277-34.314-9.277c-21.51,0-42.009,5.116-61.497,15.347
		c-19.491,10.232-34.67,23.585-45.544,40.063c-10.874,16.477-16.31,32.984-16.31,49.521c0,4.523,0.624,8.715,1.872,12.581
		c1.248,3.866,3.058,7.406,5.437,10.617c1.426,1.905,4.574,4.521,9.448,7.852c5.464,3.81,8.851,6.634,10.16,8.479
		c1.307,1.844,1.961,4.016,1.961,6.512c0,2.501-0.922,4.671-2.763,6.515c-1.844,1.844-4.072,2.766-6.685,2.766
		c-6.774,0-13.637-4.936-20.588-14.81c-6.952-9.873-10.428-22.067-10.428-36.581c0-19.983,5.971-39.344,17.915-58.08
		c11.943-18.735,28.846-33.754,50.713-45.056c21.864-11.303,45.928-16.954,72.193-16.954c21.39,0,37.639,4.222,48.752,12.667
		c11.11,8.445,16.667,18.731,16.667,30.86c0,11.536-3.744,22.031-11.23,31.484c-7.487,9.456-18.836,16.739-34.046,21.853
		c10.456,1.663,18.716,4.484,24.777,8.462c6.061,3.979,10.723,8.999,13.993,15.054c3.267,6.058,4.902,13.004,4.902,20.842
		c0,12.829-3.774,24.972-11.319,36.434c-7.548,11.461-18.658,20.961-33.333,28.504c-14.678,7.542-29.977,11.311-45.9,11.311
		c-4.635,0-14.558-0.477-29.768-1.426c-7.25-0.356-14.856-0.535-22.817-0.535c-12.121,0-22.877,0.95-32.264,2.853l2.674-9.805
		c12.478-0.71,21.36-3.698,26.649-8.968c5.286-5.27,10.25-16.903,14.884-34.901l26.381-103.602
		c1.069-4.429,1.604-7.779,1.604-10.055c0-1.794-0.744-3.382-2.229-4.758c-1.487-1.376-3.359-2.066-5.615-2.066
		C299.531,542.756,298.344,542.935,296.918,543.291z M321.414,607.549l-9.074,35.87c-4.626,18.561-9.074,32.838-13.341,42.831
		c-2.529,5.943-5.777,10.993-9.746,15.151c10.695,2.615,19.903,3.922,27.629,3.922c20.794,0,36.511-6.423,47.148-19.269
		c10.634-12.845,15.954-27.181,15.954-43c0-7.85-1.989-14.601-5.966-20.252c-3.978-5.648-9.2-9.604-15.667-11.865
		C351.884,608.679,339.571,607.549,321.414,607.549z"/>
	<path d="M438.273,605.501l-7.843-6.061c11.868-13.071,22.7-22.371,32.492-27.896c9.793-5.525,18.129-8.289,25.014-8.289
		c3.799,0,6.707,0.833,8.723,2.496c2.017,1.665,3.028,3.921,3.028,6.773c0,3.448-3.852,18.064-11.556,43.851
		c-12.561,42.188-18.842,67.619-18.842,76.292c0,1.666,0.415,3.062,1.248,4.189c0.83,1.131,1.722,1.693,2.674,1.693
		c3.802,0,13.547-7.367,29.233-22.104l6.953,6.773c-16.283,15.33-28.165,25.134-35.651,29.412
		c-7.487,4.278-13.609,6.417-18.36,6.417c-4.161,0-7.459-1.31-9.893-3.922c-2.437-2.612-3.654-6.238-3.654-10.873
		c0-14.854,8.913-51.159,26.738-108.913c0.83-2.732,1.248-5.169,1.248-7.309c0-2.376-1.069-3.564-3.208-3.564
		c-2.378,0-5.08,0.952-8.11,2.852C455.475,589.222,448.729,595.282,438.273,605.501z M508.327,487.498
		c3.682,0,6.713,1.22,9.092,3.654c2.375,2.438,3.564,5.557,3.564,9.358c0,5.23-1.814,9.835-5.438,13.814
		c-3.625,3.983-7.695,5.972-12.209,5.972c-3.566,0-6.538-1.248-8.914-3.743c-2.378-2.495-3.565-5.763-3.565-9.804
		c0-5.348,1.721-9.894,5.169-13.637C499.473,489.369,503.573,487.498,508.327,487.498z"/>
	<path d="M553.069,714.058h-26.561l12.479-47.95c6.061-23.529,11.346-45.87,15.863-67.023c1.07-5.228,1.605-8.495,1.605-9.804
		c0-2.853-1.311-4.278-3.922-4.278c-1.783,0-4.518,1.22-8.199,3.654c-3.686,2.438-10.34,8.467-19.965,18.093l-5.525-6.239
		c11.402-12.238,22.777-21.418,34.121-27.54c11.344-6.119,20.045-9.18,26.105-9.18c2.139,0,3.83,0.507,5.078,1.515
		c1.248,1.012,1.871,2.29,1.871,3.833c0,1.554-0.783,5.673-2.346,12.36l-7.754,32.069c12.027-18.968,25.6-35.191,40.723-48.672
		c7.264-6.439,13.336-9.662,18.219-9.662c3.57,0,6.547,1.159,8.93,3.477c2.381,2.317,3.572,5.021,3.572,8.11
		c0,3.208-1.158,5.943-3.473,8.199c-2.316,2.259-8.105,4.933-17.365,8.021c-8.787,2.975-15.943,6.54-21.463,10.701
		c-5.523,4.161-11.578,10.52-18.168,19.078c-6.59,8.56-11.197,16.019-13.818,22.374s-6.609,21.12-11.967,44.288L553.069,714.058z"/>
	<path d="M766.795,677.159l4.991,6.773c-15.926,13.431-27.749,22.343-35.473,26.738c-10.695,6.061-19.135,9.091-25.313,9.091
		c-2.852,0-5.169-0.802-6.951-2.406c-1.783-1.604-2.674-3.415-2.674-5.437c0-2.02,0.651-5.348,1.961-9.982l6.238-21.78
		c-14.26,15.344-26.145,25.752-35.65,31.222c-9.509,5.468-18.065,8.205-25.669,8.205c-6.3,0-11.586-2.768-15.864-8.297
		c-4.278-5.531-6.417-13.653-6.417-24.359c0-16.895,5.793-36.316,17.38-58.267c11.586-21.95,24.479-38.19,38.681-48.719
		c14.199-10.528,27.184-15.795,38.948-15.795c2.612,0,6.534,0.418,11.765,1.248c5.585-23.132,10.933-40.007,16.043-50.624
		c5.108-10.617,11.703-19.781,19.786-27.493c8.08-7.709,17.318-13.672,27.719-17.884c10.397-4.211,20.112-6.317,29.145-6.317
		c4.751,0,8.556,1.248,11.408,3.743c2.852,2.496,4.278,5.646,4.278,9.448c0,3.685-1.313,6.685-3.934,9.001
		c-2.62,2.317-6.194,3.476-10.72,3.476c-2.978,0-8.518-0.593-16.617-1.783c-8.099-1.186-13.639-1.782-16.616-1.782
		c-4.169,0-7.832,1.275-10.987,3.827c-3.158,2.551-6.167,8.036-9.024,16.455c-1.894,5.348-6.217,22.404-12.962,51.167
		l-25.218,107.682c-2.961,12.721-4.439,21.159-4.439,25.318c0,4.522,1.721,6.781,5.169,6.781c2.14,0,4.635-0.771,7.487-2.319
		C747.304,691.834,755.147,686.188,766.795,677.159z M729.005,585.008c-9.509-2.142-16.221-3.214-20.143-3.214
		c-7.963,0-15.747,3.125-23.352,9.375c-7.606,6.25-14.945,18.359-22.014,36.33c-7.072,17.973-10.606,33.623-10.606,46.953
		c0,6.071,1.632,11.04,4.902,14.909c3.267,3.868,6.979,5.802,11.141,5.802c4.991,0,10.695-2.2,17.112-6.606
		c9.149-6.546,16.399-14.52,21.747-23.923c3.208-5.949,7.545-20.529,13.013-43.741L729.005,585.008z"/>
</g>
<g>
	<path fill-rule="evenodd" clip-rule="evenodd" d="M997.361,69.783c-17.101,34.825-45.131,57.423-81.27,69.373
		c-196.277,64.9-392.844,128.927-588.947,194.347c-30.047,10.025-59.824,10.779-90.023,7.456
		c-44.712-4.921-89.225-11.737-133.761-18.188c-8.048-1.167-15.788-4.457-23.67-6.768c0.042-0.992,0.083-1.984,0.124-2.976
		c98.205-34.025,196.411-68.05,296.295-102.659c-48.545-58.345-96.147-115.559-144.158-173.263
		c10.799-11.474,21.691-22.591,32.014-34.213c4.731-5.326,8.838-1.982,13.042-0.307c63.441,25.293,126.834,50.716,190.258,76.055
		c43.276,17.288,86.53,34.642,129.967,51.523c4.6,1.786,10.853,2.06,15.515,0.525c91.858-30.213,183.624-60.714,275.346-91.351
		c26.939-8.999,54.017-9.249,81.421-2.874c11.383,2.648,20.984,8.023,27.849,17.734C997.361,59.394,997.361,64.589,997.361,69.783z"
		/>
	<path fill-rule="evenodd" clip-rule="evenodd" d="M0,211.983c7.526-6.468,14.853-13.193,22.707-19.238
		c2.198-1.692,6.642-2.831,8.877-1.761c46.688,22.361,93.208,45.073,139.745,67.746c0.78,0.381,1.384,1.126,3.376,2.798
		c-34.903,12.298-68.785,24.236-103.108,36.331C51.174,274.007,30.99,250.367,10.7,226.816C7.378,222.96,3.579,219.515,0,215.88
		C0,214.581,0,213.282,0,211.983z"/>
</g>
<g>
</g>
<g>
</g>
<g>
</g>
<g>
</g>
<g>
</g>
<g>
</g>
</svg>
